<svg id="Layer_1" xmlns="http://www.w3.org/2000/svg" viewBox="0 0 1280 69.94"><polygon points="1249.72 68.54 1212.12 68.54 1242.4 37.3 1280 37.3 1249.72 68.54"/><polygon points="1187.66 68.57 1150.06 68.57 1180.34 37.34 1217.94 37.34 1187.66 68.57"/><polygon points="1125.6 68.57 1088 68.57 1118.28 37.34 1155.88 37.34 1125.6 68.57"/><polygon points="30.28 68.48 67.88 68.48 37.6 37.24 0 37.24 30.28 68.48"/><polygon points="92.34 68.51 129.94 68.51 99.66 37.27 62.06 37.27 92.34 68.51"/><polygon points="154.4 68.51 192 68.51 161.72 37.27 124.12 37.27 154.4 68.51"/><polygon points="1280 22.94 1101 22.94 1055 69.94 640 69.44 640 46.19 1042 45.94 1088 .06 1257 .06 1280 22.94"/><polygon points="0 22.88 179 22.88 225 69.88 640 69.38 640 46.12 238 45.88 192 0 23 0 0 22.88"/><polygon points="640 37.34 1040 37.34 1054.7 22.64 640 22.64 640 37.34"/><polygon points="640 37.27 240 37.27 225.3 22.57 640 22.57 640 37.27"/></svg>