<!-- <svg id="Layer_1" xmlns="http://www.w3.org/2000/svg" viewBox="0 0 32 72.5">
<polygon points="-335.75 26.44 -156.75 26.44 -110.75 73.44 304.25 72.94 304.25 49.69 -97.75 49.44 -143.75 3.56 -312.75 3.56 -335.75 26.44"/>
<polygon points="304.25 40.84 -95.75 40.84 -110.45 26.14 304.25 26.14 304.25 40.84"/>
</svg> 

<?xml version="1.0" encoding="UTF-8"?><svg id="Layer_1" xmlns="http://www.w3.org/2000/svg" viewBox="0 0 390 46.8"><polyline points="0 46.8 390 46.8 390 23.55 0 23.55"/><rect width="390" height="14.7"/></svg>

<?xml version="1.0" encoding="UTF-8"?><svg id="Layer_1" xmlns="http://www.w3.org/2000/svg" viewBox="0 0 390 46.8"><polyline points="0 46.8 390 46.8 390 23.55 0 23.55"/><rect width="390" height="14.7"/></svg>

<?xml version="1.0" encoding="UTF-8"?><svg id="Layer_1" xmlns="http://www.w3.org/2000/svg" viewBox="0 0 100 47.5"><polyline points="0 47.5 100 47.5 100 25 0 25"/><rect width="100" height="15"/></svg>

<?xml version="1.0" encoding="UTF-8"?><svg id="Layer_1" xmlns="http://www.w3.org/2000/svg" viewBox="0 0 100 72.5"><polyline points="0 72.5 100 72.5 100 50 0 50"/><rect y="25" width="100" height="15"/></svg>
-->

<svg class="w-full" height="72.5">
  <defs>
    <pattern id="wave" y="0" width="100" height="72.5" patternUnits='userSpaceOnUse'>
      <polyline points="0 72.5 100 72.5 100 50 0 50"/><rect y="25" width="100" height="15"/>
    </pattern>
  </defs>
  <rect x="0" y="0" width="100%" height="100%" fill="url(#wave)"/>
</svg>