<svg id="Layer_1" data-name="Layer 1" xmlns="http://www.w3.org/2000/svg" viewBox="0 0 217 83.91"><path d="M219.46,313.32c-8.17-9.1-7.9-22.65.6-30.29s22-6.45,30.17,2.64,7.9,22.65-.6,30.29a19.51,19.51,0,0,1-3.4,2.45C237.84,323.17,226.6,321.27,219.46,313.32Z" transform="translate(-148 -277)" style="fill:none;stroke:#2a9d8f;stroke-miterlimit:10;stroke-width:2px"/><path d="M246.48,309.9a32.17,32.17,0,0,1-19.91-3.49" transform="translate(-148 -277)" style="fill:none;stroke:#2a9d8f;stroke-miterlimit:10;stroke-width:2px"/><path d="M233.2,297.13" transform="translate(-148 -277)" style="fill:none;stroke:#2a9d8f;stroke-miterlimit:10;stroke-width:2px"/><line y1="82" x2="217" y2="82" style="fill:none;stroke:#2a9d8f;stroke-miterlimit:10;stroke-width:2px"/><polyline points="55.71 80 68.21 59.71 107.71 49 121 82 160 36" style="fill:none;stroke:#2a9d8f;stroke-miterlimit:10;stroke-width:2px"/><line x1="86.84" y1="43.99" x2="90.27" y2="82" style="fill:none;stroke:#2a9d8f;stroke-miterlimit:10;stroke-width:2px"/></svg>