<svg id="Layer_1" data-name="Layer 1" xmlns="http://www.w3.org/2000/svg" xmlns:xlink="http://www.w3.org/1999/xlink" viewBox="0 0 395.59 267.7"><defs><clipPath id="clip-path" transform="translate(-37 -36.3)"><path d="M371,240l-39,1q.5,19,1,38l-201-3-2-149H371Z" style="fill:none"/></clipPath></defs><line x1="103.5" y1="203.6" x2="299" y2="203.6" style="fill:none;stroke:#2a9d8f;stroke-miterlimit:10;stroke-width:2px"/><polygon points="212 266.2 245.5 266.2 232.59 230.2 212 230.2 191.41 230.2 178.5 266.2 212 266.2" style="fill:none;stroke:#2a9d8f;stroke-miterlimit:10;stroke-width:2px"/><rect x="296" y="202.57" width="35" height="64.08" rx="5" style="fill:none;stroke:#2a9d8f;stroke-miterlimit:10;stroke-width:2px"/><rect x="299" y="209.15" width="29" height="50.33" rx="5" style="fill:none;stroke:#2a9d8f;stroke-miterlimit:10;stroke-width:2px"/><rect x="309.33" y="205.82" width="8.33" height="1" rx="0.5" style="fill:none;stroke:#2a9d8f;stroke-miterlimit:10;stroke-width:2px"/><circle cx="313.5" cy="262.98" r="2.5" style="fill:none;stroke:#2a9d8f;stroke-miterlimit:10;stroke-width:2px"/><line x1="68" y1="266.2" x2="298" y2="266.2" style="fill:none;stroke:#2a9d8f;stroke-miterlimit:10;stroke-width:2px"/><path d="M293,156c.58-.6,1.17-1.19,1.77-1.76" transform="translate(-37 -36.3)" style="fill:none;stroke:#e9c46a;stroke-miterlimit:10;stroke-width:2px"/><path d="M298.46,150.87c27.35-23.58,66.21-27.26,95-9.37,29.69,18.42,48.87,59.79,31.5,93.5-10.52,20.42-35.75,37.37-62,40.79" transform="translate(-37 -36.3)" style="fill:none;stroke:#e9c46a;stroke-miterlimit:10;stroke-width:2px;stroke-dasharray:4.988739013671875,4.988739013671875"/><path d="M360.56,276.07c-.83.08-1.66.15-2.49.2" transform="translate(-37 -36.3)" style="fill:none;stroke:#e9c46a;stroke-miterlimit:10;stroke-width:2px"/><path d="M346,276c5.7-2,12.79-5.55,17.2-9.31l-3.55,9.47,3.33,9.55C358.66,281.85,351.65,278.17,346,276Z" transform="translate(-37 -36.3)" style="fill:#e9c46a"/><path d="M63,242c.55-.06,1.39-.15,2.48-.29" transform="translate(-37 -36.3)" style="fill:none;stroke:#e9c46a;stroke-miterlimit:10;stroke-width:2px"/><path d="M70.43,240.93C85.38,238.15,117.15,228.51,134,194c11.08-22.69,15.9-61.72-4-74-15.34-9.47-42.36-1.18-55,17-12.53,18-8.76,42.61,1,56,17.19,23.57,64,27.51,117.48,5.15" transform="translate(-37 -36.3)" style="fill:none;stroke:#e9c46a;stroke-miterlimit:10;stroke-width:2px;stroke-dasharray:5.018222808837891,5.018222808837891"/><path d="M195.8,197.17l2.29-1" transform="translate(-37 -36.3)" style="fill:none;stroke:#e9c46a;stroke-miterlimit:10;stroke-width:2px"/><path d="M209,191c-4.25,4.32-9.1,10.57-11.44,15.87l-.92-10.07-7.15-7.15C195.06,191.24,203,191.5,209,191Z" transform="translate(-37 -36.3)" style="fill:#e9c46a"/><rect x="1" y="205.7" width="75" height="61" rx="12" style="fill:none;stroke:#2a9d8f;stroke-miterlimit:10;stroke-width:2px"/><line x1="28.45" y1="236.87" x2="65" y2="236.87" style="fill:none;stroke:#2a9d8f;stroke-miterlimit:10;stroke-width:2px"/><line x1="28.02" y1="223.29" x2="64.57" y2="223.29" style="fill:none;stroke:#2a9d8f;stroke-miterlimit:10;stroke-width:2px"/><line x1="28" y1="250.99" x2="64.55" y2="250.99" style="fill:none;stroke:#2a9d8f;stroke-miterlimit:10;stroke-width:2px"/><line x1="13.87" y1="236.76" x2="16" y2="236.76" style="fill:none;stroke:#2a9d8f;stroke-miterlimit:10;stroke-width:2px"/><line x1="13.84" y1="223.18" x2="15.97" y2="223.18" style="fill:none;stroke:#2a9d8f;stroke-miterlimit:10;stroke-width:2px"/><line x1="13.84" y1="250.88" x2="15.97" y2="250.88" style="fill:none;stroke:#2a9d8f;stroke-miterlimit:10;stroke-width:2px"/><polyline points="93 83.7 136 101.7 139 66.7 176 62.7 237 0.7" style="fill:none;stroke:#2a9d8f;stroke-miterlimit:10;stroke-width:2px"/><line x1="156" y1="50.7" x2="187" y2="102.7" style="fill:none;stroke:#2a9d8f;stroke-miterlimit:10;stroke-width:2px"/><ellipse cx="189.35" cy="63.03" rx="23.15" ry="24.76" transform="translate(-45.42 -0.01) rotate(-10.71)" style="fill:none;stroke:#2a9d8f;stroke-miterlimit:10;stroke-width:2px"/><line x1="237" y1="2.78" x2="270" y2="46.7" style="fill:none;stroke:#e9c46a;stroke-miterlimit:10;stroke-width:2px"/><polyline points="270.32 51.26 253.91 65.18 274.19 65.75" style="fill:none;stroke:#e9c46a;stroke-miterlimit:10;stroke-width:2px"/><polyline points="284.41 62.85 300.82 48.93 280.54 48.36" style="fill:none;stroke:#e9c46a;stroke-miterlimit:10;stroke-width:2px"/><line x1="277.78" y1="31.73" x2="278.69" y2="77.36" style="fill:none;stroke:#e9c46a;stroke-miterlimit:10;stroke-width:2px"/><path d="M183,76a36.1,36.1,0,0,0,13-3,35.73,35.73,0,0,0,8.17-5" transform="translate(-37 -36.3)" style="fill:none;stroke:#2a9d8f;stroke-miterlimit:10;stroke-width:2px"/><g style="clip-path:url(#clip-path)"><rect x="103.5" y="102.2" width="221" height="128" rx="12" style="fill:none;stroke:#2a9d8f;stroke-miterlimit:10;stroke-width:2px"/></g></svg>