<svg height="180px" xmlns="http://www.w3.org/2000/svg" viewBox="0 0 135.57 201.18"><g id="Layer_1" data-name="Layer 1"><polyline points="24.15 128.84 43.96 66.93 113.53 30.51" style="fill:none;stroke:#2c9e8f;stroke-miterlimit:10;stroke-width:2px"/><line x1="24.56" y1="68.8" x2="90.03" y2="156.81" style="fill:none;stroke:#fff;stroke-miterlimit:10;stroke-width:4px"/><line x1="24.56" y1="68.8" x2="90.03" y2="156.81" style="fill:none;stroke:#e9c369;stroke-miterlimit:10;stroke-width:2px"/><path d="M376.32,402.26c.18,13.67-10,24.89-22.82,25.06S330.21,416.53,330,402.86s10-24.9,22.83-25.06a21.89,21.89,0,0,1,4.67.44C368.1,380.41,376.17,390.29,376.32,402.26Z" transform="translate(-329.03 -376.79)" style="fill:none;stroke:#2c9e8f;stroke-miterlimit:10;stroke-width:2px"/><path d="M346.65,416.64a36,36,0,0,0,20.61-9.33" transform="translate(-329.03 -376.79)" style="fill:none;stroke:#2c9e8f;stroke-miterlimit:10;stroke-width:2px"/><line x1="31.37" y1="49.77" x2="113.53" y2="102.28" style="fill:none;stroke:#2c9e8f;stroke-miterlimit:10;stroke-width:2px"/><polyline points="88.36 166 68.25 188.92 96.8 185.51" style="fill:none;stroke:#fff;stroke-miterlimit:10;stroke-width:4px"/><polyline points="88.36 166 68.25 188.92 96.8 185.51" style="fill:none;stroke:#e9c369;stroke-miterlimit:10;stroke-width:2px"/><polyline points="110.52 179.33 130.63 156.42 102.08 159.82" style="fill:none;stroke:#fff;stroke-miterlimit:10;stroke-width:4px"/><polyline points="110.52 179.33 130.63 156.42 102.08 159.82" style="fill:none;stroke:#e9c369;stroke-miterlimit:10;stroke-width:2px"/><line x1="94.77" y1="137.09" x2="105.51" y2="200.85" style="fill:none;stroke:#fff;stroke-miterlimit:10;stroke-width:4px"/><line x1="94.77" y1="137.09" x2="105.51" y2="200.85" style="fill:none;stroke:#e9c369;stroke-miterlimit:10;stroke-width:2px"/></g><g id="Layer_2" data-name="Layer 2"><path d="M389,493.18" transform="translate(-329.03 -376.79)" style="fill:none;stroke:#2c9e8f;stroke-miterlimit:10;stroke-width:2px"/><line x1="58.42" y1="114.32" x2="23.68" y2="130.21" style="fill:none;stroke:#2c9e8f;stroke-miterlimit:10;stroke-width:2px"/></g></svg>