<svg id="Layer_1" data-name="Layer 1" xmlns="http://www.w3.org/2000/svg" viewBox="0 0 243.76 318"><path d="M218,85a10,10,0,0,1,10,10V389a10,10,0,0,1-10,10H54a10,10,0,0,1-10-10V95A10,10,0,0,1,54,85H218m0-2H54A12,12,0,0,0,42,95V389a12,12,0,0,0,12,12H218a12,12,0,0,0,12-12V95a12,12,0,0,0-12-12Z" transform="translate(-42 -83)" style="fill:#2a9d8f"/><line x1="4.83" y1="28.16" x2="7.33" y2="28.16" style="fill:none;stroke:#2a9d8f;stroke-miterlimit:10;stroke-width:2px"/><line x1="12.3" y1="28.16" x2="178.58" y2="28.16" style="fill:none;stroke:#2a9d8f;stroke-miterlimit:10;stroke-width:2px;stroke-dasharray:4.963766574859619,4.963766574859619"/><line x1="181.06" y1="28.16" x2="183.56" y2="28.16" style="fill:none;stroke:#2a9d8f;stroke-miterlimit:10;stroke-width:2px"/><line x1="29" y1="16" x2="50.35" y2="16" style="fill:none;stroke:#2a9d8f;stroke-miterlimit:10;stroke-width:2px"/><line x1="103" y1="15.9" x2="158" y2="15.9" style="fill:none;stroke:#2a9d8f;stroke-miterlimit:10;stroke-width:2px"/><line x1="22" y1="71" x2="49" y2="71" style="fill:none;stroke:#2a9d8f;stroke-miterlimit:10;stroke-width:2px"/><line x1="22" y1="82" x2="78" y2="82" style="fill:none;stroke:#2a9d8f;stroke-miterlimit:10;stroke-width:2px"/><rect x="23" y="111" width="27" height="5" rx="2" style="fill:none;stroke:#2a9d8f;stroke-miterlimit:10;stroke-width:2px"/><rect x="52" y="111" width="27" height="5" rx="2" style="fill:none;stroke:#2a9d8f;stroke-miterlimit:10;stroke-width:2px"/><line x1="22" y1="93" x2="78" y2="93" style="fill:none;stroke:#2a9d8f;stroke-miterlimit:10;stroke-width:2px"/><line x1="22" y1="99" x2="78" y2="99" style="fill:none;stroke:#2a9d8f;stroke-miterlimit:10;stroke-width:2px"/><rect x="116.3" y="83.12" width="48.17" height="27.9" rx="2" style="fill:none;stroke:#2a9d8f;stroke-miterlimit:10;stroke-width:2px"/><line x1="116.3" y1="105.22" x2="164.47" y2="105.22" style="fill:none;stroke:#2a9d8f;stroke-miterlimit:10;stroke-width:2px"/><polygon points="139.95 118.87 147.25 118.87 144.44 111.02 139.95 111.02 135.46 111.02 132.65 118.87 139.95 118.87" style="fill:none;stroke:#2a9d8f;stroke-miterlimit:10;stroke-width:2px"/><rect x="158.26" y="105" width="7.63" height="13.97" rx="1" style="fill:none;stroke:#2a9d8f;stroke-miterlimit:10;stroke-width:2px"/><rect x="158.91" y="106.43" width="6.32" height="10.97" rx="1" class="main-bg-color" style="stroke:#2a9d8f;stroke-miterlimit:10;stroke-width:2px"/><rect x="161.16" y="105.71" width="1.82" height="0.22" rx="0.11" style="fill:none;stroke:#2a9d8f;stroke-miterlimit:10;stroke-width:2px"/><circle cx="162.07" cy="118.17" r="0.54" style="fill:none;stroke:#2a9d8f;stroke-miterlimit:10;stroke-width:2px"/><line x1="108.56" y1="118.87" x2="158.69" y2="118.87" style="fill:none;stroke:#2a9d8f;stroke-miterlimit:10;stroke-width:2px"/><path d="M191.54,169.94q.44-.45.9-.87" transform="translate(-42 -83)" style="fill:none;stroke:#e9c46a;stroke-miterlimit:10;stroke-width:2px"/><path d="M194.47,167.48a17.53,17.53,0,0,1,19-.7c6.47,4,10.65,13,6.87,20.38a17.53,17.53,0,0,1-8.81,7.61" transform="translate(-42 -83)" style="fill:none;stroke:#e9c46a;stroke-miterlimit:10;stroke-width:2px;stroke-dasharray:2.5779383182525635,2.5779383182525635"/><path d="M210.31,195.22c-.4.13-.8.26-1.2.36" transform="translate(-42 -83)" style="fill:none;stroke:#e9c46a;stroke-miterlimit:10;stroke-width:2px"/><path d="M203.09,196.09a30.16,30.16,0,0,0,8-5.64l-1.2,4.91,2.22,4.55A30.15,30.15,0,0,0,203.09,196.09Z" transform="translate(-42 -83)" style="fill:#e9c46a"/><path d="M140.1,190a10.62,10.62,0,0,0,1.23-.23" transform="translate(-42 -83)" style="fill:none;stroke:#e9c46a;stroke-miterlimit:10;stroke-width:2px"/><path d="M143.73,189.06c4-1.36,10-4.45,13.15-10.84,2.42-4.95,3.47-13.45-.87-16.13-3.34-2.06-9.23-.26-12,3.71a11.06,11.06,0,0,0,.22,12.2c3.25,4.46,11.36,5.7,21.07,2.76" transform="translate(-42 -83)" style="fill:none;stroke:#e9c46a;stroke-miterlimit:10;stroke-width:2px;stroke-dasharray:2.504155158996582,2.504155158996582"/><path d="M166.5,180.38l1.19-.41" transform="translate(-42 -83)" style="fill:none;stroke:#e9c46a;stroke-miterlimit:10;stroke-width:2px"/><path d="M173.23,177.57a30.12,30.12,0,0,0-6,7.68l-.25-5.05-3.42-3.73A30.15,30.15,0,0,0,173.23,177.57Z" transform="translate(-42 -83)" style="fill:#e9c46a"/><rect x="93.96" y="105.68" width="16.35" height="13.3" rx="2" style="fill:none;stroke:#2a9d8f;stroke-miterlimit:10;stroke-width:2px"/><line x1="99.94" y1="112.48" x2="107.91" y2="112.48" style="fill:none;stroke:#2a9d8f;stroke-miterlimit:10;stroke-width:2px"/><line x1="99.85" y1="109.51" x2="107.81" y2="109.51" style="fill:none;stroke:#2a9d8f;stroke-miterlimit:10;stroke-width:2px"/><line x1="99.84" y1="115.55" x2="107.81" y2="115.55" style="fill:none;stroke:#2a9d8f;stroke-miterlimit:10;stroke-width:2px"/><polyline points="114.01 79.09 123.38 83.01 124.04 75.39 132.1 74.51 145.4 61" style="fill:none;stroke:#2a9d8f;stroke-miterlimit:10;stroke-width:2px"/><line x1="127.74" y1="71.9" x2="134.5" y2="83.23" style="fill:none;stroke:#2a9d8f;stroke-miterlimit:10;stroke-width:2px"/><ellipse cx="168.95" cy="149.67" rx="5.05" ry="5.4" transform="translate(-66.87 -48.99) rotate(-10.71)" style="fill:none;stroke:#2a9d8f;stroke-miterlimit:10;stroke-width:2px"/><line x1="145.4" y1="61.45" x2="152.59" y2="71.03" style="fill:none;stroke:#e9c46a;stroke-miterlimit:10;stroke-width:2px"/><polyline points="152.66 72.02 149.08 75.05 153.5 75.18" style="fill:none;stroke:#e9c46a;stroke-miterlimit:10;stroke-width:2px"/><polyline points="155.73 74.55 159.31 71.51 154.89 71.39" style="fill:none;stroke:#e9c46a;stroke-miterlimit:10;stroke-width:2px"/><line x1="154.29" y1="67.76" x2="154.48" y2="77.71" style="fill:none;stroke:#e9c46a;stroke-miterlimit:10;stroke-width:2px"/><path d="M167.56,152.5a8.09,8.09,0,0,0,2.84-.65,8,8,0,0,0,1.78-1.09" transform="translate(-42 -83)" style="fill:none;stroke:#2a9d8f;stroke-miterlimit:10;stroke-width:2px"/><line x1="118" y1="171" x2="167" y2="171" style="fill:none;stroke:#2a9d8f;stroke-miterlimit:10;stroke-width:2px"/><line x1="127" y1="177" x2="167" y2="177" style="fill:none;stroke:#2a9d8f;stroke-miterlimit:10;stroke-width:2px"/><line x1="135" y1="183" x2="167" y2="183" style="fill:none;stroke:#2a9d8f;stroke-miterlimit:10;stroke-width:2px"/><line x1="142" y1="189" x2="167" y2="189" style="fill:none;stroke:#2a9d8f;stroke-miterlimit:10;stroke-width:2px"/><line x1="111" y1="159" x2="138" y2="159" style="fill:none;stroke:#2a9d8f;stroke-miterlimit:10;stroke-width:2px"/><path d="M71,255.63" transform="translate(-42 -83)" style="fill:none;stroke:#fff;stroke-miterlimit:10;stroke-width:5px"/><path d="M273.17,273.56c11.43-7.5,15-22.25,8-32.94s-22-13.26-33.4-5.75-15,22.26-8,32.94a21.05,21.05,0,0,0,3,3.62C250.47,279,263.17,280.13,273.17,273.56Z" transform="translate(-42 -83)" style="fill:none;stroke:#2a9d8f;stroke-miterlimit:10;stroke-width:2px"/><polyline points="218.53 247.31 209.67 240.47 100.46 156.21" style="fill:none;stroke:#fff;stroke-miterlimit:10;stroke-width:5px"/><polyline points="218.53 247.31 209.67 240.47 100.46 156.21" style="fill:none;stroke:#e9c46a;stroke-miterlimit:10;stroke-width:2px"/><polyline points="96.34 144.52 129.21 96.25 75.73 109.4" style="fill:none;stroke:#fff;stroke-miterlimit:10;stroke-width:5px"/><polyline points="96.34 144.52 129.21 96.25 75.73 109.4" style="fill:none;stroke:#e9c46a;stroke-miterlimit:10;stroke-width:2px"/><polyline points="71.69 159.48 18.22 172.63 51.09 124.36" style="fill:none;stroke:#fff;stroke-miterlimit:10;stroke-width:5px"/><polyline points="71.69 159.48 18.22 172.63 51.09 124.36" style="fill:none;stroke:#e9c46a;stroke-miterlimit:10;stroke-width:2px"/><line x1="90.91" y1="200.99" x2="55.59" y2="82.28" style="fill:none;stroke:#fff;stroke-miterlimit:10;stroke-width:5px"/><line x1="90.91" y1="200.99" x2="55.59" y2="82.28" style="fill:none;stroke:#e9c46a;stroke-miterlimit:10;stroke-width:2px"/><line x1="203.33" y1="190.59" x2="188" y2="209.22" style="fill:none;stroke:#2a9d8f;stroke-miterlimit:10;stroke-width:2px"/><polyline points="188 194.87 203.33 209.22 169 258 165.23 206.18" style="fill:none;stroke:#2a9d8f;stroke-miterlimit:10;stroke-width:2px"/><path d="M244.9,262.16a36.12,36.12,0,0,0,22.54,1.9" transform="translate(-42 -83)" style="fill:none;stroke:#2a9d8f;stroke-miterlimit:10;stroke-width:2px"/></svg>